<svg width="40" height="40" viewBox="0 0 40 40" fill="none" xmlns="http://www.w3.org/2000/svg">
<path d="M25.6836 17.2797L20.9054 10.1698C20.8034 10.0262 20.6675 9.90966 20.5097 9.8303C20.3518 9.75095 20.1768 9.71121 20 9.71455C19.6509 9.71455 19.3018 9.86629 19.0945 10.1806L14.3163 17.2797H9.09086C8.49086 17.2797 7.99995 17.7675 7.99995 18.3636C7.99995 18.4611 8.01086 18.5587 8.04359 18.6562L10.8145 28.7034C11.0654 29.6138 11.9054 30.2858 12.909 30.2858H27.0909C28.0945 30.2858 28.9345 29.6138 29.1963 28.7034L31.9672 18.6562L32 18.3636C32 17.7675 31.509 17.2797 30.909 17.2797H25.6836ZM16.7272 17.2797L20 12.5109L23.2727 17.2797H16.7272ZM20 25.9504C18.8 25.9504 17.8181 24.975 17.8181 23.7828C17.8181 22.5905 18.8 21.6151 20 21.6151C21.2 21.6151 22.1818 22.5905 22.1818 23.7828C22.1818 24.975 21.2 25.9504 20 25.9504Z" fill="white"/>
</svg>
