<svg width="14" height="15" viewBox="0 0 14 15" fill="none" xmlns="http://www.w3.org/2000/svg">
<g clip-path="url(#clip0_4219_185)">
<path d="M6.60002 5.99989H7.73335V4.29989H9.43335V3.16655H7.73335V1.46655H6.60002V3.16655H4.90002V4.29989H6.60002V5.99989ZM4.33335 11.0999C3.71002 11.0999 3.20568 11.6099 3.20568 12.2332C3.20568 12.8566 3.71002 13.3666 4.33335 13.3666C4.95668 13.3666 5.46668 12.8566 5.46668 12.2332C5.46668 11.6099 4.95668 11.0999 4.33335 11.0999ZM10 11.0999C9.37668 11.0999 8.87235 11.6099 8.87235 12.2332C8.87235 12.8566 9.37668 13.3666 10 13.3666C10.6234 13.3666 11.1334 12.8566 11.1334 12.2332C11.1334 11.6099 10.6234 11.0999 10 11.0999ZM4.42968 9.25822L4.44668 9.19022L4.95668 8.26655H9.17835C9.60335 8.26655 9.97735 8.03422 10.17 7.68289L12.3574 3.71055L11.3714 3.16655H11.3657L10.7424 4.29989L9.17835 7.13322H5.20035L5.12668 6.98022L3.85735 4.29989L3.31902 3.16655L2.78635 2.03322H0.93335V3.16655H2.06668L4.10668 7.46755L3.34168 8.85589C3.25102 9.01455 3.20002 9.20155 3.20002 9.39989C3.20002 10.0232 3.71002 10.5332 4.33335 10.5332H11.1334V9.39989H4.57135C4.49768 9.39989 4.42968 9.33755 4.42968 9.25822Z" fill="white"/>
</g>
<defs>
<clipPath id="clip0_4219_185">
<rect width="13.6" height="13.6" fill="white" transform="translate(0.366699 0.899902)"/>
</clipPath>
</defs>
</svg>
